<mxfile host="app.diagrams.net" modified="2022-02-25T12:20:47.309Z" agent="5.0 (Macintosh; Intel Mac OS X 10_15_7) AppleWebKit/537.36 (KHTML, like Gecko) Chrome/95.0.4638.69 Safari/537.36" etag="MVTj4u4KiP2OFfj329S9" version="16.5.3" type="github">
  <diagram id="3RfJVnPjRfMeZb7cNeNo" name="Page-1">
    <mxGraphModel dx="946" dy="619" grid="1" gridSize="10" guides="1" tooltips="1" connect="1" arrows="1" fold="1" page="1" pageScale="1" pageWidth="827" pageHeight="1169" math="0" shadow="0">
      <root>
        <mxCell id="0" />
        <mxCell id="1" parent="0" />
        <mxCell id="ZfeRjEDSsptff4i0dCnh-1" value="Logseq" style="rounded=1;whiteSpace=wrap;html=1;fillColor=#f5f5f5;fontColor=#333333;strokeColor=#666666;" parent="1" vertex="1">
          <mxGeometry x="310" y="240" width="50" height="60" as="geometry" />
        </mxCell>
        <mxCell id="ZfeRjEDSsptff4i0dCnh-2" value="Spacemacs" style="rounded=1;whiteSpace=wrap;html=1;fillColor=#f5f5f5;fontColor=#333333;strokeColor=#666666;" parent="1" vertex="1">
          <mxGeometry x="370" y="240" width="190" height="60" as="geometry" />
        </mxCell>
        <mxCell id="ZfeRjEDSsptff4i0dCnh-3" value="Mac Quiver file" style="rounded=1;whiteSpace=wrap;html=1;fillColor=#d5e8d4;strokeColor=#82b366;" parent="1" vertex="1">
          <mxGeometry x="260" y="340" width="140" height="60" as="geometry" />
        </mxCell>
        <mxCell id="ZfeRjEDSsptff4i0dCnh-4" value="linux Quiver file" style="rounded=1;whiteSpace=wrap;html=1;fillColor=#d5e8d4;strokeColor=#82b366;" parent="1" vertex="1">
          <mxGeometry x="420" y="340" width="140" height="60" as="geometry" />
        </mxCell>
        <mxCell id="ZfeRjEDSsptff4i0dCnh-5" value="gitlab" style="rounded=1;whiteSpace=wrap;html=1;fillColor=#e1d5e7;strokeColor=#9673a6;" parent="1" vertex="1">
          <mxGeometry x="260" y="440" width="300" height="60" as="geometry" />
        </mxCell>
        <mxCell id="ZfeRjEDSsptff4i0dCnh-6" value="Alfred" style="rounded=1;whiteSpace=wrap;html=1;" parent="1" vertex="1">
          <mxGeometry x="160" y="240" width="140" height="60" as="geometry" />
        </mxCell>
        <mxCell id="vEIe4eCbSBH7lpPjci_W-1" value="接口" style="rounded=1;whiteSpace=wrap;html=1;fillColor=#d5e8d4;strokeColor=#82b366;" vertex="1" parent="1">
          <mxGeometry x="160" y="340" width="80" height="60" as="geometry" />
        </mxCell>
        <mxCell id="vEIe4eCbSBH7lpPjci_W-2" value="MySQL" style="rounded=1;whiteSpace=wrap;html=1;fillColor=#e1d5e7;strokeColor=#9673a6;" vertex="1" parent="1">
          <mxGeometry x="160" y="440" width="80" height="60" as="geometry" />
        </mxCell>
      </root>
    </mxGraphModel>
  </diagram>
</mxfile>
